<svg xmlns="http://www.w3.org/2000/svg" width="16" height="16" viewBox="35 52 65 69">
    <path d="M95.033 110.795c-3.873-8.715-9.252-14.416-13.555-17.859 3.227-.43 6.885-1.721 12.049-4.626l1.614-.861-.753-1.829-4.088-9.36-.968-2.152-2.044 1.184c-.108.108-4.411 2.259-9.36 1.721 5.379-1.398 9.36-6.239 9.36-12.049a12.535 12.535 0 0 0-12.587-12.587c-6.885 0-12.48 5.594-12.48 12.587 0 2.797.968 5.379 2.582 7.531-6.777 4.626-8.714 12.265-9.252 19.042-.215 1.721-.323 2.259-.323 2.474-4.303 8.823-13.555 10.114-13.986 10.221l-2.689.322.968 2.475 4.411 11.941.538 1.721 1.829-.43c13.448-2.797 18.289-9.037 22.162-14.094 9.467 4.734 12.91 12.373 12.91 12.373.323.43 1.076 1.936 1.076 1.936l1.829-1.184 9.897-5.809 1.722-.969-.862-1.719z"/>
    <path d="M74.7 56.896c4.518 0 8.069 3.55 8.069 8.068 0 4.411-3.551 7.961-8.069 7.961a7.943 7.943 0 0 1-7.961-7.961c0-4.518 3.55-8.068 7.961-8.068zm9.467 57.555c-1.722-3.119-6.025-8.82-15.492-12.908-.322-.215-.646-.324-.968-.324-.538 0-1.076.324-1.399.646l-.968 1.291c-3.442 4.625-7.315 9.789-18.074 12.588l-2.904-7.854c3.765-1.076 10.866-4.09 14.631-12.05.323-.43.538-1.506.753-3.873.753-8.821 3.12-13.556 8.284-16.46 1.291.753 2.689 1.398 4.303 1.721v.538c.108.646.108 1.291.323 1.829l.431.968.968.323c5.271 1.829 10.435.323 13.233-.86l2.474 5.486c-7.854 4.088-11.296 3.551-15.384 2.905 0 0-.968-.107-1.291-.107-1.184 0-1.829.861-2.044 2.044-.215 1.291.968 1.829.968 1.829.431.43 11.296 4.519 18.397 18.612l-6.241 3.656z" fill="yellow"/>
</svg>